<svg xmlns="http://www.w3.org/2000/svg" viewBox="0 0 512 512" role="img" aria-label="Ayodhya Restaurant">
  <defs>
    <linearGradient id="bg" x1="0" y1="0" x2="1" y2="1">
      <stop offset="0" stop-color="#4b1f0d"/>
      <stop offset="1" stop-color="#241008"/>
    </linearGradient>
    <linearGradient id="gold" x1="0" y1="0" x2="1" y2="1">
      <stop offset="0" stop-color="#f2d17d"/>
      <stop offset="0.55" stop-color="#d4a84b"/>
      <stop offset="1" stop-color="#a66a2c"/>
    </linearGradient>
  </defs>
  <rect width="512" height="512" rx="112" fill="url(#bg)"/>
  <circle cx="256" cy="256" r="206" fill="none" stroke="#d4a84b" stroke-opacity=".34" stroke-width="10"/>
  <path d="M153 352 236 142h44l82 210h-43l-19-54h-84l-20 54h-43Zm76-89h59l-29-83-30 83Z" fill="url(#gold)"/>
  <g transform="translate(332 166)" fill="none" stroke="url(#gold)" stroke-width="8" stroke-linecap="round" stroke-linejoin="round">
    <path d="M0 34c20-5 32 6 36 26-20 5-32-6-36-26Z"/>
    <path d="M0 34c-4 20-18 29-37 24 4-20 18-29 37-24Z"/>
    <path d="M0 34c-13-16-10-32 6-45 13 16 10 32-6 45Z"/>
    <path d="M0 34c13-16 29-18 45-5-13 16-29 18-45 5Z"/>
    <circle cx="0" cy="34" r="9" fill="#d4a84b" stroke="none"/>
  </g>
  <text x="256" y="420" text-anchor="middle" font-family="Georgia, 'Times New Roman', serif" font-size="39" font-weight="700" fill="#f7e7bf">AYODHYA</text>
</svg>